<?xml version="1.0" encoding="UTF-8" standalone="no"?>
<!-- Created with Inkscape (http://www.inkscape.org/) -->

<svg
   version="1.1"
   id="svg1"
   width="428"
   height="172"
   viewBox="0 0 428 172"
   sodipodi:docname="OVM_range_policy.svg"
   inkscape:version="1.3.2 (1:1.3.2+202311252150+091e20ef0f)"
   xmlns:inkscape="http://www.inkscape.org/namespaces/inkscape"
   xmlns:sodipodi="http://sodipodi.sourceforge.net/DTD/sodipodi-0.dtd"
   xmlns="http://www.w3.org/2000/svg"
   xmlns:svg="http://www.w3.org/2000/svg"
   xmlns:ns7="http://www.iki.fi/pav/software/textext/">
  <sodipodi:namedview
     id="namedview1"
     pagecolor="#ffffff"
     bordercolor="#000000"
     borderopacity="0.25"
     inkscape:showpageshadow="2"
     inkscape:pageopacity="0.0"
     inkscape:pagecheckerboard="0"
     inkscape:deskcolor="#d1d1d1"
     inkscape:zoom="3.9065421"
     inkscape:cx="214"
     inkscape:cy="85.881579"
     inkscape:window-width="2560"
     inkscape:window-height="1403"
     inkscape:window-x="2560"
     inkscape:window-y="238"
     inkscape:window-maximized="1"
     inkscape:current-layer="layer2">
    <inkscape:page
       x="0"
       y="0"
       inkscape:label="1"
       id="page1"
       width="428"
       height="172"
       margin="0"
       bleed="0"
       inkscape:export-filename="OVM_range_policy.pdf"
       inkscape:export-xdpi="96"
       inkscape:export-ydpi="96" />
  </sodipodi:namedview>
  <defs
     id="defs1" />
  <g
     id="g1"
     inkscape:groupmode="layer"
     inkscape:label="raw"
     sodipodi:insensitive="true">
    <path
       id="path1"
       d="M 177.324,118.445 V 11.219"
       style="fill:none;stroke:#000000;stroke-width:0.833075;stroke-linecap:butt;stroke-linejoin:miter;stroke-miterlimit:10;stroke-dasharray:none;stroke-opacity:1"
       transform="scale(1.3333333,1.329996)" />
    <path
       id="path2"
       d="m 14.552,-177.324 1.668,-1.668 -5.831,1.668 5.831,1.664 z"
       style="fill:#000000;fill-opacity:1;fill-rule:evenodd;stroke:#000000;stroke-width:0.444306;stroke-linecap:square;stroke-linejoin:miter;stroke-miterlimit:10;stroke-dasharray:none;stroke-opacity:1"
       transform="matrix(0,1.329996,-1.3333333,0,0,0)" />
    <path
       id="path3"
       d="M 177.324,118.445 H 310.969"
       style="fill:none;stroke:#000000;stroke-width:0.833075;stroke-linecap:butt;stroke-linejoin:miter;stroke-miterlimit:10;stroke-dasharray:none;stroke-opacity:1"
       transform="scale(1.3333333,1.329996)" />
    <path
       id="path4"
       d="m -307.641,-118.445 1.672,-1.668 -5.832,1.668 5.832,1.664 z"
       style="fill:#000000;fill-opacity:1;fill-rule:evenodd;stroke:#000000;stroke-width:0.444306;stroke-linecap:square;stroke-linejoin:miter;stroke-miterlimit:10;stroke-dasharray:none;stroke-opacity:1"
       transform="scale(-1.3333333,-1.329996)" />
    <path
       id="path5"
       d="m 190.68,11.062 c 0.324,-0.566 0.632,-1.035 1.472,-1.097 0.102,-0.02 0.243,-0.02 0.243,-0.262 0,-0.043 -0.059,-0.148 -0.161,-0.148 -0.304,0 -0.675,0.043 -1,0.043 -0.453,0 -0.925,-0.043 -1.371,-0.043 -0.062,0 -0.25,0 -0.25,0.246 0,0.144 0.129,0.164 0.207,0.164 0.305,0.019 0.778,0.121 0.778,0.508 0,0.144 -0.082,0.246 -0.184,0.429 l -3.516,6.114 -0.488,-6.442 c 0,-0.262 -0.019,-0.59 0.918,-0.609 0.227,0 0.352,0 0.352,-0.262 0,-0.125 -0.149,-0.148 -0.188,-0.148 -0.531,0 -1.082,0.043 -1.594,0.043 -0.312,0 -1.062,-0.043 -1.367,-0.043 -0.082,0 -0.246,0 -0.246,0.269 0,0.141 0.121,0.141 0.305,0.141 0.57,0 0.672,0.082 0.691,0.328 l 0.082,0.996 -3.308,5.727 -0.489,-6.582 c 0,-0.164 0,-0.45 1,-0.469 0.125,0 0.266,0 0.266,-0.262 0,-0.148 -0.16,-0.148 -0.184,-0.148 -0.511,0 -1.062,0.043 -1.593,0.043 -0.469,0 -0.942,-0.043 -1.371,-0.043 -0.079,0 -0.246,0 -0.246,0.246 0,0.164 0.121,0.164 0.328,0.164 0.656,0 0.672,0.121 0.695,0.488 l 0.594,7.934 c 0,0.242 0.023,0.34 0.203,0.34 0.144,0 0.183,-0.079 0.308,-0.258 l 3.84,-6.649 0.473,6.567 c 0.043,0.285 0.059,0.34 0.203,0.34 0.184,0 0.266,-0.122 0.328,-0.243 z"
       style="fill:#000000;fill-opacity:1;fill-rule:nonzero;stroke:none"
       transform="scale(1.3333333)" />
    <path
       id="path6"
       d="m 177.324,118.445 87.199,-87.203 h 33.582"
       style="fill:none;stroke:#0072be;stroke-width:1.30802;stroke-linecap:butt;stroke-linejoin:miter;stroke-miterlimit:10;stroke-dasharray:none;stroke-opacity:1"
       transform="scale(1.3333333,1.329996)" />
    <path
       id="path7"
       d="M 264.523,118.445 V 31.242 h -87.199"
       style="fill:none;stroke:#000000;stroke-width:0.654006;stroke-linecap:butt;stroke-linejoin:miter;stroke-miterlimit:10;stroke-dasharray:5.23205, 1.30802, 0.654006, 1.30802;stroke-dashoffset:0;stroke-opacity:1"
       transform="scale(1.3333333,1.329996)" />
    <path
       id="path8"
       d="M 217.457,78.317 H 233.57 V 62.199"
       style="fill:none;stroke:#000000;stroke-width:0.654006;stroke-linecap:butt;stroke-linejoin:miter;stroke-miterlimit:10;stroke-dasharray:5.23205, 1.30802, 0.654006, 1.30802;stroke-dashoffset:0;stroke-opacity:1"
       transform="scale(1.3333333,1.329996)" />
    <path
       id="path9"
       d="m 240.309,66.34 c 0,-0.324 0,-0.344 -0.305,-0.344 -0.816,0.832 -1.961,0.832 -2.367,0.832 v 0.41 c 0.261,0 1.019,0 1.695,-0.347 v 6.746 c 0,0.468 -0.043,0.613 -1.207,0.613 h -0.41 v 0.406 c 0.449,-0.039 1.574,-0.039 2.105,-0.039 0.512,0 1.657,0 2.11,0.039 V 74.25 h -0.414 c -1.184,0 -1.207,-0.145 -1.207,-0.613 z"
       style="fill:#000000;fill-opacity:1;fill-rule:nonzero;stroke:none"
       transform="scale(1.3333333)" />
    <path
       id="path10"
       d="m 185.16,34.965 c 0,-0.715 -0.344,-0.918 -0.57,-0.918 -0.324,0 -0.656,0.348 -0.656,0.629 0,0.164 0.058,0.246 0.211,0.39 0.285,0.262 0.445,0.59 0.445,1.063 0,0.547 -0.801,3.519 -2.309,3.519 -0.676,0 -0.98,-0.445 -0.98,-1.136 0,-0.711 0.367,-1.672 0.754,-2.754 0.101,-0.223 0.164,-0.406 0.164,-0.653 0,-0.57 -0.41,-1.058 -1.063,-1.058 -1.226,0 -1.718,1.898 -1.718,2 0,0.141 0.121,0.141 0.144,0.141 0.145,0 0.145,-0.04 0.207,-0.243 0.387,-1.312 0.938,-1.613 1.328,-1.613 0.102,0 0.324,0 0.324,0.406 0,0.328 -0.14,0.692 -0.222,0.918 -0.574,1.508 -0.735,2.102 -0.735,2.672 0,1.402 1.141,1.606 1.735,1.606 2.187,0 2.941,-4.297 2.941,-4.969 z"
       style="fill:#000000;fill-opacity:1;fill-rule:nonzero;stroke:none"
       transform="scale(1.3333333)" />
    <path
       id="path11"
       d="m 192.871,38.992 c 0,-0.793 -0.414,-1.265 -1.371,-1.265 -0.738,0 -1.23,0.39 -1.473,0.859 -0.183,-0.656 -0.672,-0.859 -1.328,-0.859 -0.754,0 -1.226,0.41 -1.492,0.898 v -0.898 l -1.352,0.105 v 0.324 c 0.618,0 0.696,0.063 0.696,0.508 v 2.363 c 0,0.387 -0.102,0.387 -0.696,0.387 v 0.328 c 0.028,0 0.657,-0.043 1.043,-0.043 0.329,0 0.965,0.043 1.047,0.043 v -0.328 c -0.593,0 -0.675,0 -0.675,-0.387 v -1.648 c 0,-0.938 0.753,-1.383 1.343,-1.383 0.637,0 0.719,0.488 0.719,0.953 v 2.078 c 0,0.387 -0.082,0.387 -0.672,0.387 v 0.328 c 0.016,0 0.649,-0.043 1.039,-0.043 0.328,0 0.961,0.043 1.043,0.043 v -0.328 c -0.594,0 -0.676,0 -0.676,-0.387 v -1.648 c 0,-0.938 0.758,-1.383 1.352,-1.383 0.633,0 0.715,0.488 0.715,0.953 v 2.078 c 0,0.387 -0.082,0.387 -0.676,0.387 v 0.328 c 0.02,0 0.656,-0.043 1.043,-0.043 0.324,0 0.965,0.043 1.043,0.043 v -0.328 c -0.594,0 -0.672,0 -0.672,-0.387 z"
       style="fill:#000000;fill-opacity:1;fill-rule:nonzero;stroke:none"
       transform="scale(1.3333333)" />
    <path
       id="path12"
       d="m 197.996,39.297 c 0,-0.469 0,-0.813 -0.43,-1.16 -0.367,-0.305 -0.793,-0.453 -1.351,-0.453 -0.856,0 -1.465,0.332 -1.465,0.878 0,0.309 0.203,0.45 0.449,0.45 0.242,0 0.426,-0.184 0.426,-0.426 0,-0.145 -0.082,-0.348 -0.324,-0.41 0.324,-0.223 0.851,-0.223 0.894,-0.223 0.516,0 1.086,0.328 1.086,1.098 v 0.265 c -0.508,0.02 -1.105,0.063 -1.777,0.305 -0.824,0.289 -1.066,0.797 -1.066,1.203 0,0.778 0.941,1 1.593,1 0.719,0 1.149,-0.41 1.352,-0.754 0.019,0.368 0.262,0.711 0.695,0.711 0.02,0 0.899,0 0.899,-0.855 v -0.508 h -0.305 v 0.488 c 0,0.102 0,0.532 -0.352,0.532 -0.324,0 -0.324,-0.43 -0.324,-0.532 z m -0.715,1.164 c 0,0.875 -0.777,1.117 -1.187,1.117 -0.469,0 -0.895,-0.305 -0.895,-0.754 0,-0.508 0.426,-1.203 2.082,-1.262 z"
       style="fill:#000000;fill-opacity:1;fill-rule:nonzero;stroke:none"
       transform="scale(1.3333333)" />
    <path
       id="path13"
       d="m 202.211,39.703 c 0,0 -0.066,-0.082 -0.066,-0.082 0,-0.039 0.597,-0.672 0.679,-0.75 0.324,-0.367 0.629,-0.715 1.371,-0.715 v -0.324 c -0.269,0.016 -0.539,0.039 -0.781,0.039 -0.266,0 -0.629,-0.023 -0.894,-0.039 v 0.324 c 0.14,0.02 0.183,0.125 0.183,0.203 0,0.024 0,0.164 -0.144,0.305 l -0.637,0.715 -0.754,-0.856 c -0.102,-0.101 -0.102,-0.14 -0.102,-0.183 0,-0.121 0.122,-0.184 0.246,-0.184 v -0.324 c -0.328,0.016 -0.675,0.039 -1.023,0.039 -0.266,0 -0.613,-0.023 -0.879,-0.039 v 0.324 c 0.406,0 0.652,0 0.895,0.266 l 1.129,1.301 c 0.019,0.019 0.082,0.082 0.082,0.105 0,0.02 -0.696,0.774 -0.778,0.875 -0.351,0.367 -0.656,0.692 -1.367,0.711 v 0.328 c 0.266,-0.015 0.469,-0.043 0.754,-0.043 0.262,0 0.633,0.028 0.902,0.043 v -0.328 c -0.101,-0.019 -0.183,-0.078 -0.183,-0.203 0,-0.184 0.101,-0.305 0.242,-0.445 l 0.652,-0.711 0.782,0.914 c 0.183,0.183 0.183,0.203 0.183,0.265 0,0.161 -0.207,0.18 -0.25,0.18 v 0.328 c 0.082,0 0.738,-0.043 1.024,-0.043 0.285,0 0.597,0.028 0.882,0.043 v -0.328 c -0.621,0 -0.679,-0.059 -0.906,-0.281 z"
       style="fill:#000000;fill-opacity:1;fill-rule:nonzero;stroke:none"
       transform="scale(1.3333333)" />
    <path
       id="path14"
       d="m 181.832,123.969 c 0,-0.856 -0.051,-1.711 -0.418,-2.5 -0.488,-1.043 -1.383,-1.211 -1.82,-1.211 -0.656,0 -1.43,0.285 -1.883,1.273 -0.336,0.742 -0.387,1.582 -0.387,2.438 0,0.804 0.035,1.758 0.485,2.582 0.457,0.855 1.246,1.074 1.769,1.074 0.57,0 1.399,-0.219 1.867,-1.242 0.336,-0.738 0.387,-1.574 0.387,-2.414 z m -2.254,3.422 c -0.422,0 -1.062,-0.27 -1.246,-1.293 -0.117,-0.637 -0.117,-1.625 -0.117,-2.266 0,-0.687 0,-1.391 0.086,-1.965 0.203,-1.269 1.008,-1.375 1.277,-1.375 0.352,0 1.059,0.207 1.262,1.266 0.117,0.601 0.117,1.406 0.117,2.074 0,0.809 0,1.527 -0.117,2.219 -0.168,1.019 -0.774,1.34 -1.262,1.34 z"
       style="fill:#000000;fill-opacity:1;fill-rule:nonzero;stroke:none"
       transform="scale(1.3333333)" />
    <path
       id="path15"
       d="m 259.832,121.285 c 0,-0.793 -0.387,-1.027 -0.641,-1.027 -0.363,0 -0.734,0.394 -0.734,0.711 0,0.183 0.066,0.273 0.227,0.437 0.324,0.293 0.507,0.664 0.507,1.192 0,0.617 -0.894,3.961 -2.597,3.961 -0.758,0 -1.102,-0.504 -1.102,-1.286 0,-0.796 0.414,-1.875 0.852,-3.085 0.117,-0.258 0.179,-0.461 0.179,-0.739 0,-0.637 -0.457,-1.191 -1.191,-1.191 -1.379,0 -1.926,2.133 -1.926,2.246 0,0.16 0.137,0.16 0.16,0.16 0.161,0 0.161,-0.043 0.227,-0.273 0.437,-1.469 1.055,-1.813 1.492,-1.813 0.117,0 0.371,0 0.371,0.457 0,0.371 -0.164,0.781 -0.254,1.035 -0.644,1.692 -0.828,2.36 -0.828,3 0,1.582 1.289,1.809 1.949,1.809 2.461,0 3.309,-4.832 3.309,-5.594 z"
       style="fill:#000000;fill-opacity:1;fill-rule:nonzero;stroke:none"
       transform="scale(1.3333333)" />
    <path
       id="path16"
       d="m 268.492,125.816 c 0,-0.894 -0.457,-1.418 -1.539,-1.418 -0.828,0 -1.379,0.434 -1.652,0.961 -0.207,-0.734 -0.758,-0.961 -1.489,-0.961 -0.855,0 -1.382,0.457 -1.679,1.004 v -1.004 l -1.516,0.114 v 0.367 c 0.688,0 0.778,0.066 0.778,0.57 v 2.656 c 0,0.438 -0.114,0.438 -0.778,0.438 v 0.367 c 0.024,0 0.731,-0.047 1.168,-0.047 0.371,0 1.082,0.047 1.172,0.047 v -0.367 c -0.664,0 -0.754,0 -0.754,-0.438 v -1.851 c 0,-1.055 0.844,-1.559 1.512,-1.559 0.715,0 0.805,0.547 0.805,1.075 v 2.335 c 0,0.438 -0.09,0.438 -0.754,0.438 v 0.367 c 0.019,0 0.73,-0.047 1.168,-0.047 0.367,0 1.078,0.047 1.171,0.047 v -0.367 c -0.667,0 -0.757,0 -0.757,-0.438 v -1.851 c 0,-1.055 0.847,-1.559 1.515,-1.559 0.711,0 0.805,0.547 0.805,1.075 v 2.335 c 0,0.438 -0.094,0.438 -0.762,0.438 v 0.367 c 0.024,0 0.739,-0.047 1.176,-0.047 0.363,0 1.078,0.047 1.164,0.047 v -0.367 c -0.66,0 -0.754,0 -0.754,-0.438 z"
       style="fill:#000000;fill-opacity:1;fill-rule:nonzero;stroke:none"
       transform="scale(1.3333333)" />
    <path
       id="path17"
       d="m 274.254,126.16 c 0,-0.527 0,-0.918 -0.484,-1.305 -0.411,-0.343 -0.895,-0.503 -1.516,-0.503 -0.965,0 -1.652,0.367 -1.652,0.984 0,0.344 0.226,0.5 0.507,0.5 0.278,0 0.481,-0.203 0.481,-0.477 0,-0.16 -0.09,-0.39 -0.363,-0.457 0.363,-0.254 0.957,-0.254 1.003,-0.254 0.575,0 1.219,0.368 1.219,1.239 v 0.297 c -0.574,0.023 -1.242,0.07 -1.996,0.343 -0.922,0.321 -1.195,0.891 -1.195,1.348 0,0.875 1.058,1.125 1.789,1.125 0.805,0 1.289,-0.457 1.519,-0.852 0.02,0.418 0.297,0.805 0.778,0.805 0.023,0 1.011,0 1.011,-0.965 v -0.57 h -0.343 v 0.555 c 0,0.113 0,0.593 -0.387,0.593 -0.371,0 -0.371,-0.48 -0.371,-0.593 z m -0.805,1.305 c 0,0.988 -0.875,1.262 -1.332,1.262 -0.527,0 -1.008,-0.344 -1.008,-0.852 0,-0.57 0.481,-1.348 2.34,-1.418 z"
       style="fill:#000000;fill-opacity:1;fill-rule:nonzero;stroke:none"
       transform="scale(1.3333333)" />
    <path
       id="path18"
       d="m 278.992,126.617 c 0,0 -0.07,-0.09 -0.07,-0.09 0,-0.047 0.664,-0.757 0.754,-0.847 0.367,-0.414 0.715,-0.801 1.539,-0.801 v -0.367 c -0.297,0.023 -0.594,0.047 -0.867,0.047 -0.305,0 -0.719,-0.024 -1.016,-0.047 v 0.367 c 0.16,0.023 0.207,0.137 0.207,0.226 0,0.024 0,0.184 -0.16,0.344 l -0.707,0.805 -0.856,-0.965 c -0.113,-0.113 -0.113,-0.16 -0.113,-0.207 0,-0.137 0.137,-0.203 0.274,-0.203 v -0.367 c -0.364,0.023 -0.758,0.047 -1.145,0.047 -0.297,0 -0.691,-0.024 -0.988,-0.047 v 0.367 c 0.457,0 0.734,0 1.008,0.297 l 1.261,1.465 c 0.024,0.023 0.094,0.093 0.094,0.117 0,0.019 -0.777,0.867 -0.871,0.98 -0.391,0.41 -0.738,0.782 -1.539,0.805 v 0.367 c 0.297,-0.023 0.527,-0.047 0.851,-0.047 0.297,0 0.711,0.024 1.008,0.047 v -0.367 c -0.113,-0.023 -0.203,-0.09 -0.203,-0.231 0,-0.207 0.113,-0.339 0.274,-0.503 l 0.734,-0.801 0.871,1.031 c 0.207,0.207 0.207,0.231 0.207,0.297 0,0.184 -0.23,0.207 -0.273,0.207 v 0.367 c 0.089,0 0.824,-0.047 1.148,-0.047 0.32,0 0.664,0.024 0.984,0.047 v -0.367 c -0.687,0 -0.753,-0.07 -1.007,-0.32 z"
       style="fill:#000000;fill-opacity:1;fill-rule:nonzero;stroke:none"
       transform="scale(1.3333333)" />
    <path
       id="path20"
       d="M 2.512,113.804 V 9.978"
       style="fill:none;stroke:#000000;stroke-width:0.868974;stroke-linecap:butt;stroke-linejoin:miter;stroke-miterlimit:10;stroke-dasharray:none;stroke-opacity:1"
       transform="scale(1.3333333,1.329996)" />
    <path
       id="path21"
       d="m 13.452,-2.512 1.734,-1.746 -6.077,1.746 6.077,1.735 z"
       style="fill:#000000;fill-opacity:1;fill-rule:evenodd;stroke:#000000;stroke-width:0.463453;stroke-linecap:square;stroke-linejoin:miter;stroke-miterlimit:10;stroke-dasharray:none;stroke-opacity:1"
       transform="matrix(0,1.329996,-1.3333333,0,0,0)" />
    <path
       id="path22"
       d="M 2.512,113.804 H 152.68"
       style="fill:none;stroke:#000000;stroke-width:0.936048;stroke-linecap:butt;stroke-linejoin:miter;stroke-miterlimit:10;stroke-dasharray:none;stroke-opacity:1"
       transform="scale(1.3333333,1.329996)" />
    <path
       id="path23"
       d="m -148.938,-113.804 1.876,-1.872 -6.555,1.872 6.555,1.872 z"
       style="fill:#000000;fill-opacity:1;fill-rule:evenodd;stroke:#000000;stroke-width:0.499226;stroke-linecap:square;stroke-linejoin:miter;stroke-miterlimit:10;stroke-dasharray:none;stroke-opacity:1"
       transform="scale(-1.3333333,-1.329996)" />
    <path
       id="path24"
       d="m 2.512,113.804 h 19.109 l 85.328,-85.326 h 30.41"
       style="fill:none;stroke:#0072be;stroke-width:1.46968;stroke-linecap:butt;stroke-linejoin:miter;stroke-miterlimit:10;stroke-dasharray:none;stroke-opacity:1"
       transform="scale(1.3333333,1.329996)" />
    <path
       id="path25"
       d="M 106.949,28.478 H 2.512"
       style="fill:none;stroke:#000000;stroke-width:0.734846;stroke-linecap:butt;stroke-linejoin:miter;stroke-miterlimit:10;stroke-dasharray:5.87873, 1.46968, 0.734846, 1.46968;stroke-dashoffset:0;stroke-opacity:1"
       transform="scale(1.3333333,1.329996)" />
    <path
       id="path26"
       d="M 75.297,60.444 V 76.598 H 59.145"
       style="fill:none;stroke:#000000;stroke-width:0.579481;stroke-linecap:butt;stroke-linejoin:miter;stroke-miterlimit:10;stroke-dasharray:4.63585, 1.15896, 0.579481, 1.15896;stroke-dashoffset:0;stroke-opacity:1"
       transform="scale(1.3333333,1.329996)" />
    <path
       id="path27"
       d="m 150.738,116.055 c 0,0 0,-0.164 -0.187,-0.164 -0.344,0 -1.399,0.113 -1.793,0.164 -0.113,0 -0.274,0.019 -0.274,0.273 0,0.184 0.137,0.184 0.344,0.184 0.711,0 0.738,0.09 0.738,0.25 l -0.046,0.297 -2.118,8.406 c -0.066,0.207 -0.066,0.23 -0.066,0.32 0,0.348 0.305,0.418 0.437,0.418 0.231,0 0.461,-0.187 0.528,-0.394 l 0.277,-1.098 0.32,-1.305 c 0.09,-0.344 0.18,-0.664 0.254,-0.984 0.024,-0.09 0.16,-0.574 0.16,-0.664 0.047,-0.141 0.504,-0.938 1.008,-1.352 0.325,-0.234 0.758,-0.508 1.403,-0.508 0.621,0 0.781,0.508 0.781,1.036 0,0.777 -0.547,2.378 -0.895,3.273 -0.117,0.32 -0.207,0.504 -0.207,0.801 0,0.687 0.528,1.195 1.215,1.195 1.379,0 1.906,-2.133 1.906,-2.246 0,-0.164 -0.113,-0.164 -0.16,-0.164 -0.16,0 -0.16,0.051 -0.23,0.277 -0.203,0.778 -0.688,1.813 -1.492,1.813 -0.25,0 -0.344,-0.145 -0.344,-0.485 0,-0.367 0.117,-0.71 0.254,-1.031 0.226,-0.64 0.894,-2.379 0.894,-3.23 0,-0.938 -0.574,-1.559 -1.675,-1.559 -0.918,0 -1.633,0.461 -2.18,1.121 z"
       style="fill:#000000;fill-opacity:1;fill-rule:nonzero;stroke:none"
       transform="scale(1.3333333)" />
    <path
       id="path28"
       d="m 13.102,9.914 c 0.714,-1.144 1.332,-1.191 1.863,-1.211 0.187,-0.023 0.207,-0.254 0.207,-0.277 0,-0.114 -0.094,-0.18 -0.207,-0.18 -0.371,0 -0.805,0.043 -1.192,0.043 -0.484,0 -0.992,-0.043 -1.449,-0.043 -0.09,0 -0.273,0 -0.273,0.274 0,0.16 0.113,0.183 0.226,0.183 0.391,0.02 0.664,0.18 0.664,0.477 0,0.23 -0.207,0.554 -0.207,0.554 L 8.238,16.875 7.227,9.137 c 0,-0.254 0.343,-0.434 1.011,-0.434 0.203,0 0.364,0 0.364,-0.297 0,-0.117 -0.114,-0.16 -0.184,-0.16 -0.598,0 -1.219,0.043 -1.836,0.043 -0.25,0 -0.527,0 -0.801,0 C 5.523,8.289 5.25,8.246 5,8.246 c -0.117,0 -0.277,0 -0.277,0.274 0,0.183 0.117,0.183 0.367,0.183 0.805,0 0.828,0.137 0.871,0.5 l 1.152,9.008 c 0.043,0.297 0.114,0.344 0.297,0.344 0.227,0 0.297,-0.075 0.41,-0.254 z"
       style="fill:#000000;fill-opacity:1;fill-rule:nonzero;stroke:none"
       transform="scale(1.3333333)" />
    <path
       id="path29"
       d="m 11.152,31.137 c 0,-0.801 -0.39,-1.032 -0.64,-1.032 -0.371,0 -0.739,0.391 -0.739,0.711 0,0.184 0.071,0.274 0.231,0.434 0.324,0.297 0.508,0.668 0.508,1.191 0,0.618 -0.899,3.965 -2.594,3.965 -0.762,0 -1.106,-0.5 -1.106,-1.281 0,-0.801 0.415,-1.879 0.848,-3.094 0.117,-0.254 0.188,-0.461 0.188,-0.734 0,-0.641 -0.461,-1.192 -1.196,-1.192 -1.379,0 -1.929,2.133 -1.929,2.247 0,0.16 0.136,0.16 0.16,0.16 0.16,0 0.16,-0.047 0.23,-0.274 0.434,-1.468 1.059,-1.812 1.492,-1.812 0.114,0 0.368,0 0.368,0.457 0,0.367 -0.161,0.781 -0.254,1.035 -0.641,1.695 -0.824,2.359 -0.824,3 0,1.582 1.285,1.809 1.953,1.809 2.453,0 3.304,-4.832 3.304,-5.59 z"
       style="fill:#000000;fill-opacity:1;fill-rule:nonzero;stroke:none"
       transform="scale(1.3333333)" />
    <path
       id="path30"
       d="m 19.812,35.668 c 0,-0.895 -0.46,-1.422 -1.539,-1.422 -0.828,0 -1.378,0.43 -1.652,0.961 -0.211,-0.73 -0.762,-0.961 -1.496,-0.961 -0.848,0 -1.375,0.457 -1.676,1.008 v -1.008 l -1.511,0.113 v 0.368 c 0.683,0 0.777,0.07 0.777,0.57 v 2.66 c 0,0.434 -0.113,0.434 -0.777,0.434 v 0.367 c 0.023,0 0.73,-0.047 1.164,-0.047 0.375,0 1.082,0.047 1.175,0.047 v -0.367 c -0.668,0 -0.754,0 -0.754,-0.434 v -1.855 c 0,-1.055 0.844,-1.559 1.512,-1.559 0.711,0 0.805,0.551 0.805,1.074 v 2.34 c 0,0.434 -0.094,0.434 -0.762,0.434 v 0.367 c 0.024,0 0.738,-0.047 1.172,-0.047 0.371,0 1.082,0.047 1.172,0.047 v -0.367 c -0.664,0 -0.758,0 -0.758,-0.434 v -1.855 c 0,-1.055 0.852,-1.559 1.516,-1.559 0.715,0 0.804,0.551 0.804,1.074 v 2.34 c 0,0.434 -0.089,0.434 -0.757,0.434 v 0.367 c 0.023,0 0.73,-0.047 1.168,-0.047 0.371,0 1.078,0.047 1.171,0.047 v -0.367 c -0.664,0 -0.754,0 -0.754,-0.434 z"
       style="fill:#000000;fill-opacity:1;fill-rule:nonzero;stroke:none"
       transform="scale(1.3333333)" />
    <path
       id="path31"
       d="m 25.574,36.012 c 0,-0.532 0,-0.918 -0.484,-1.309 -0.41,-0.344 -0.895,-0.504 -1.516,-0.504 -0.961,0 -1.656,0.367 -1.656,0.985 0,0.343 0.23,0.504 0.508,0.504 0.277,0 0.484,-0.208 0.484,-0.481 0,-0.16 -0.09,-0.391 -0.367,-0.457 0.367,-0.25 0.961,-0.25 1.008,-0.25 0.574,0 1.219,0.363 1.219,1.23 v 0.305 c -0.575,0.02 -1.243,0.067 -1.997,0.34 -0.921,0.32 -1.195,0.891 -1.195,1.352 0,0.871 1.055,1.121 1.789,1.121 0.805,0 1.289,-0.457 1.516,-0.844 0.023,0.41 0.297,0.801 0.781,0.801 0.024,0 1.012,0 1.012,-0.961 v -0.578 h -0.344 v 0.55 c 0,0.114 0,0.598 -0.394,0.598 -0.364,0 -0.364,-0.484 -0.364,-0.598 z m -0.804,1.3 c 0,0.989 -0.872,1.262 -1.332,1.262 -0.528,0 -1.012,-0.344 -1.012,-0.847 0,-0.575 0.484,-1.352 2.344,-1.418 z"
       style="fill:#000000;fill-opacity:1;fill-rule:nonzero;stroke:none"
       transform="scale(1.3333333)" />
    <path
       id="path32"
       d="m 30.309,36.469 c 0,0 -0.067,-0.094 -0.067,-0.094 0,-0.043 0.66,-0.758 0.754,-0.848 0.363,-0.414 0.715,-0.8 1.539,-0.8 v -0.368 c -0.297,0.024 -0.594,0.047 -0.871,0.047 -0.305,0 -0.715,-0.023 -1.012,-0.047 v 0.368 c 0.16,0.023 0.207,0.136 0.207,0.23 0,0.02 0,0.18 -0.16,0.34 l -0.715,0.805 -0.847,-0.965 c -0.114,-0.114 -0.114,-0.16 -0.114,-0.203 0,-0.137 0.137,-0.207 0.274,-0.207 v -0.368 c -0.367,0.024 -0.754,0.047 -1.149,0.047 -0.3,0 -0.687,-0.023 -0.984,-0.047 v 0.368 c 0.457,0 0.731,0 1.008,0.296 l 1.262,1.469 c 0.023,0.02 0.089,0.09 0.089,0.113 0,0.024 -0.777,0.868 -0.867,0.981 -0.394,0.418 -0.734,0.781 -1.539,0.805 v 0.367 c 0.297,-0.024 0.528,-0.047 0.848,-0.047 0.297,0 0.715,0.023 1.012,0.047 v -0.367 c -0.114,-0.024 -0.207,-0.09 -0.207,-0.227 0,-0.207 0.113,-0.348 0.273,-0.508 l 0.734,-0.801 0.875,1.028 c 0.207,0.211 0.207,0.234 0.207,0.305 0,0.179 -0.23,0.203 -0.277,0.203 v 0.367 c 0.094,0 0.824,-0.047 1.148,-0.047 0.325,0 0.668,0.023 0.989,0.047 v -0.367 c -0.688,0 -0.754,-0.067 -1.008,-0.321 z"
       style="fill:#000000;fill-opacity:1;fill-rule:nonzero;stroke:none"
       transform="scale(1.3333333)" />
    <path
       id="path33"
       d="m 7.027,119.598 c 0,-0.856 -0.054,-1.711 -0.422,-2.5 -0.492,-1.039 -1.382,-1.207 -1.816,-1.207 -0.656,0 -1.434,0.285 -1.883,1.273 -0.34,0.742 -0.394,1.578 -0.394,2.434 0,0.808 0.035,1.765 0.492,2.59 0.453,0.851 1.25,1.07 1.766,1.07 0.57,0 1.398,-0.219 1.867,-1.242 0.336,-0.739 0.39,-1.575 0.39,-2.418 z m -2.257,3.425 c -0.422,0 -1.063,-0.265 -1.247,-1.293 -0.117,-0.636 -0.117,-1.625 -0.117,-2.269 0,-0.684 0,-1.387 0.086,-1.961 0.199,-1.273 1.012,-1.375 1.278,-1.375 0.355,0 1.062,0.203 1.261,1.258 0.117,0.605 0.117,1.41 0.117,2.078 0,0.812 0,1.531 -0.117,2.219 -0.168,1.027 -0.773,1.343 -1.261,1.343 z"
       style="fill:#000000;fill-opacity:1;fill-rule:nonzero;stroke:none"
       transform="scale(1.3333333)" />
    <path
       id="path34"
       d="m 83.09,58.094 c 0,-0.352 0,-0.352 -0.375,-0.352 -0.844,0.813 -2.004,0.813 -2.531,0.813 v 0.461 c 0.293,0 1.164,0 1.863,-0.348 v 6.574 c 0,0.434 0,0.61 -1.277,0.61 h -0.497 v 0.464 c 0.235,0 1.829,-0.058 2.297,-0.058 0.403,0 2.028,0.058 2.321,0.058 v -0.464 h -0.493 c -1.308,0 -1.308,-0.176 -1.308,-0.61 z"
       style="fill:#000000;fill-opacity:1;fill-rule:nonzero;stroke:none"
       transform="scale(1.3333333)" />
    <path
       id="path35"
       d="m 78.289,69.138 h 8.324"
       style="fill:none;stroke:#000000;stroke-width:0.739314;stroke-linecap:butt;stroke-linejoin:miter;stroke-miterlimit:10;stroke-dasharray:none;stroke-opacity:1"
       transform="scale(1.3333333,1.329996)" />
    <path
       id="path36"
       d="m 82.734,75.254 h 2.411 c 0.144,0 0.695,0 0.695,-0.52 0,-0.347 -0.348,-0.347 -0.578,-0.347 h -4.067 c -0.375,0 -0.777,0.031 -1.449,0.636 -0.379,0.348 -0.871,1.016 -0.871,1.133 0,0.145 0.176,0.145 0.234,0.145 0.145,0 0.145,-0.031 0.231,-0.145 0.637,-0.902 1.453,-0.902 1.742,-0.902 h 1.16 l -1.304,4.144 c -0.059,0.204 -0.059,0.204 -0.059,0.29 0,0.347 0.316,0.406 0.433,0.406 0.493,0 0.579,-0.465 0.61,-0.637 z"
       style="fill:#000000;fill-opacity:1;fill-rule:nonzero;stroke:none"
       transform="scale(1.3333333)" />
    <path
       id="path37"
       d="m 25.074,115.945 c 0,0 0,-0.16 -0.183,-0.16 -0.231,0 -1.61,0.137 -1.86,0.16 -0.113,0.02 -0.207,0.09 -0.207,0.278 0,0.179 0.137,0.179 0.344,0.179 0.711,0 0.73,0.094 0.73,0.254 l -0.039,0.297 -0.875,3.457 c -0.273,-0.547 -0.687,-0.937 -1.355,-0.937 -1.699,0 -3.512,2.156 -3.512,4.289 0,1.371 0.801,2.332 1.926,2.332 0.297,0 1.039,-0.071 1.906,-1.098 0.113,0.617 0.645,1.098 1.332,1.098 0.531,0 0.852,-0.344 1.102,-0.801 0.234,-0.527 0.437,-1.422 0.437,-1.445 0,-0.16 -0.136,-0.16 -0.179,-0.16 -0.137,0 -0.161,0.074 -0.211,0.277 -0.25,0.937 -0.504,1.808 -1.102,1.808 -0.41,0 -0.433,-0.39 -0.433,-0.664 0,-0.367 0.023,-0.457 0.066,-0.711 z m -3.035,8.25 c -0.09,0.274 -0.09,0.297 -0.297,0.547 -0.637,0.801 -1.242,1.031 -1.652,1.031 -0.735,0 -0.942,-0.8 -0.942,-1.375 0,-0.734 0.461,-2.515 0.805,-3.207 0.457,-0.847 1.102,-1.398 1.699,-1.398 0.942,0 1.153,1.195 1.153,1.281 0,0.09 -0.024,0.188 -0.047,0.25 z"
       style="fill:#000000;fill-opacity:1;fill-rule:nonzero;stroke:none"
       transform="scale(1.3333333)" />
    <path
       id="path38"
       d="m 135.504,17.258 c 0,-0.039 0,-0.059 -0.215,-0.266 -1.555,-1.519 -1.969,-3.816 -1.969,-5.676 0,-2.109 0.473,-4.214 2.028,-5.714 0.156,-0.153 0.156,-0.172 0.156,-0.211 0,-0.094 -0.039,-0.133 -0.117,-0.133 -0.137,0 -1.258,0.836 -2.004,2.375 -0.633,1.328 -0.789,2.676 -0.789,3.683 0,0.95 0.136,2.411 0.828,3.797 0.766,1.481 1.828,2.278 1.965,2.278 0.078,0 0.117,-0.039 0.117,-0.133 z"
       style="fill:#000000;fill-opacity:1;fill-rule:nonzero;stroke:none"
       transform="scale(1.3333333)" />
    <path
       id="path39"
       d="m 140.402,13.441 c 0.059,0.477 0.395,0.989 0.985,0.989 0.273,0 1.043,-0.172 1.043,-1.16 v -0.684 h -0.317 v 0.684 c 0,0.703 -0.312,0.781 -0.453,0.781 -0.41,0 -0.472,-0.551 -0.472,-0.61 v -2.41 c 0,-0.511 0,-0.988 -0.45,-1.445 -0.492,-0.473 -1.121,-0.664 -1.711,-0.664 -1.043,0 -1.91,0.57 -1.91,1.367 0,0.363 0.258,0.57 0.59,0.57 0.355,0 0.57,-0.246 0.57,-0.55 0,-0.153 -0.058,-0.551 -0.648,-0.551 0.355,-0.438 0.965,-0.57 1.355,-0.57 0.633,0 1.34,0.476 1.34,1.558 v 0.438 c -0.648,0.035 -1.515,0.074 -2.301,0.437 -0.945,0.414 -1.261,1.043 -1.261,1.574 0,0.989 1.222,1.289 2.008,1.289 0.828,0 1.398,-0.492 1.632,-1.043 z m -0.078,-1.992 v 1.215 c 0,1.137 -0.906,1.555 -1.476,1.555 -0.61,0 -1.121,-0.418 -1.121,-1.024 0,-0.664 0.531,-1.672 2.597,-1.746 z"
       style="fill:#000000;fill-opacity:1;fill-rule:nonzero;stroke:none"
       transform="scale(1.3333333)" />
    <path
       id="path40"
       d="m 146.125,11.316 c 0,-0.929 -0.141,-2.394 -0.828,-3.777 -0.746,-1.484 -1.828,-2.281 -1.945,-2.281 -0.082,0 -0.141,0.058 -0.141,0.133 0,0.039 0,0.058 0.238,0.285 1.239,1.195 1.946,3.113 1.946,5.64 0,2.086 -0.454,4.215 -2.004,5.735 -0.18,0.148 -0.18,0.168 -0.18,0.207 0,0.074 0.059,0.133 0.141,0.133 0.117,0 1.257,-0.836 1.984,-2.371 0.648,-1.332 0.789,-2.68 0.789,-3.704 z"
       style="fill:#000000;fill-opacity:1;fill-rule:nonzero;stroke:none"
       transform="scale(1.3333333)" />
    <path
       id="path41"
       d="m 296.211,17.078 c 0,-0.035 0,-0.055 -0.207,-0.262 -1.477,-1.496 -1.871,-3.757 -1.871,-5.589 0,-2.079 0.449,-4.153 1.926,-5.633 0.152,-0.149 0.152,-0.168 0.152,-0.203 0,-0.094 -0.039,-0.133 -0.113,-0.133 -0.133,0 -1.2,0.824 -1.91,2.34 -0.598,1.308 -0.747,2.636 -0.747,3.629 0,0.933 0.129,2.375 0.786,3.738 0.73,1.461 1.738,2.246 1.871,2.246 0.074,0 0.113,-0.039 0.113,-0.133 z"
       style="fill:#000000;fill-opacity:1;fill-rule:nonzero;stroke:none"
       transform="scale(1.3333333)" />
    <path
       id="path42"
       d="M 298.957,9.711 V 5.934 l -1.719,0.128 v 0.376 c 0.84,0 0.934,0.074 0.934,0.671 v 7.11 h 0.301 c 0,-0.02 0.093,-0.188 0.429,-0.75 0.168,0.281 0.672,0.879 1.551,0.879 1.422,0 2.656,-1.176 2.656,-2.711 0,-1.516 -1.16,-2.696 -2.523,-2.696 -0.938,0 -1.441,0.563 -1.629,0.77 z m 0.039,3.141 v -2.45 c 0,-0.226 0,-0.242 0.129,-0.429 0.469,-0.676 1.125,-0.766 1.402,-0.766 0.543,0 0.973,0.316 1.254,0.766 0.321,0.484 0.34,1.16 0.34,1.664 0,0.429 -0.019,1.14 -0.355,1.683 -0.266,0.375 -0.711,0.766 -1.348,0.766 -0.543,0 -0.973,-0.281 -1.254,-0.731 -0.168,-0.242 -0.168,-0.277 -0.168,-0.503 z"
       style="fill:#000000;fill-opacity:1;fill-rule:nonzero;stroke:none"
       transform="scale(1.3333333)" />
    <path
       id="path43"
       d="m 306.969,11.227 c 0,-0.918 -0.129,-2.36 -0.785,-3.723 -0.711,-1.461 -1.739,-2.246 -1.852,-2.246 -0.074,0 -0.129,0.058 -0.129,0.133 0,0.035 0,0.054 0.223,0.281 1.179,1.176 1.851,3.066 1.851,5.555 0,2.054 -0.429,4.148 -1.906,5.648 -0.168,0.148 -0.168,0.168 -0.168,0.203 0,0.074 0.055,0.133 0.129,0.133 0.113,0 1.199,-0.824 1.891,-2.34 0.617,-1.309 0.746,-2.637 0.746,-3.644 z"
       style="fill:#000000;fill-opacity:1;fill-rule:nonzero;stroke:none"
       transform="scale(1.3333333)" />
  </g>
  <g
     inkscape:groupmode="layer"
     id="layer2"
     inkscape:label="added_marker">
    <g
       transform="matrix(2.0477706,0,0,2.0477706,410.35114,159.08708)"
       ns7:version="1.10.0"
       ns7:texconverter="pdflatex"
       ns7:pdfconverter="inkscape"
       ns7:text="$v_{s}$"
       ns7:preamble="/home/bizon/.config/inkscape/extensions/textext/default_packages.tex"
       ns7:scale="2.128203546545538"
       ns7:alignment="middle center"
       ns7:stroke-to-path="0"
       ns7:inkscapeversion="1.3.2"
       id="g9415"
       ns7:jacobian_sqrt="2.8376">
      <defs
         id="id-d035a810-9ef4-4a16-8bf1-0a5fa514fa24">
        <g
           id="id-1a39bfe4-b792-4867-9dc2-7dfe2064fc77">
          <symbol
             overflow="visible"
             id="id-ae0172f7-b94a-408f-82c4-6dc517a5e36e">
            <path
               style="stroke:none;stroke-width:0"
               d=""
               id="id-b4a5b479-21e6-456e-94c9-61c1c0a14775" />
          </symbol>
          <symbol
             overflow="visible"
             id="id-cf0f5b53-eb26-48f6-bd66-259c656ff2ec">
            <path
               style="stroke:none;stroke-width:0"
               d="m 4.671875,-3.703125 c 0,-0.546875 -0.265625,-0.703125 -0.4375,-0.703125 -0.25,0 -0.5,0.265625 -0.5,0.484375 0,0.125 0.046875,0.1875 0.15625,0.296875 0.21875,0.203125 0.34375,0.453125 0.34375,0.8125 0,0.421875 -0.609375,2.703125 -1.765625,2.703125 -0.515625,0 -0.75,-0.34375 -0.75,-0.875 0,-0.546875 0.28125,-1.28125 0.578125,-2.109375 0.078125,-0.171875 0.125,-0.3125 0.125,-0.5 0,-0.4375 -0.3125,-0.8125 -0.8125,-0.8125 -0.9375,0 -1.3125,1.453125 -1.3125,1.53125 0,0.109375 0.09375,0.109375 0.109375,0.109375 0.109375,0 0.109375,-0.03125 0.15625,-0.1875 0.296875,-1 0.71875,-1.234375 1.015625,-1.234375 0.078125,0 0.25,0 0.25,0.3125 0,0.25 -0.109375,0.53125 -0.171875,0.703125 -0.4375,1.15625 -0.5625,1.609375 -0.5625,2.046875 0,1.078125 0.875,1.234375 1.328125,1.234375 1.671875,0 2.25,-3.296875 2.25,-3.8125 z m 0,0"
               id="id-6e02fa0e-ce60-4d66-9d29-de1f2e9c4cc0" />
          </symbol>
          <symbol
             overflow="visible"
             id="id-fed50a14-c26f-41b9-9bb4-db0ca91436d3">
            <path
               style="stroke:none;stroke-width:0"
               d=""
               id="id-818607e4-ac91-4c2f-aac2-a4430ae60cf2" />
          </symbol>
          <symbol
             overflow="visible"
             id="id-952cec42-2cde-4952-a61a-35ae215c5b0a">
            <path
               style="stroke:none;stroke-width:0"
               d="m 3,-2.625 c -0.171875,0.046875 -0.296875,0.1875 -0.296875,0.328125 0,0.171875 0.140625,0.234375 0.234375,0.234375 0.078125,0 0.34375,-0.046875 0.34375,-0.40625 0,-0.453125 -0.5,-0.609375 -0.9375,-0.609375 -1.078125,0 -1.28125,0.8125 -1.28125,1.015625 0,0.265625 0.15625,0.4375 0.25,0.515625 0.171875,0.140625 0.296875,0.171875 0.78125,0.25 0.15625,0.03125 0.59375,0.109375 0.59375,0.453125 0,0.125 -0.078125,0.390625 -0.359375,0.5625 C 2.046875,-0.125 1.703125,-0.125 1.625,-0.125 1.34375,-0.125 0.953125,-0.1875 0.78125,-0.421875 1.015625,-0.453125 1.171875,-0.625 1.171875,-0.8125 c 0,-0.171875 -0.125,-0.265625 -0.265625,-0.265625 -0.203125,0 -0.40625,0.171875 -0.40625,0.46875 0,0.421875 0.4375,0.671875 1.109375,0.671875 1.296875,0 1.53125,-0.875 1.53125,-1.140625 0,-0.640625 -0.703125,-0.765625 -0.96875,-0.8125 -0.0625,-0.015625 -0.234375,-0.046875 -0.28125,-0.0625 -0.25,-0.046875 -0.375,-0.1875 -0.375,-0.34375 0,-0.15625 0.125,-0.34375 0.28125,-0.453125 0.1875,-0.109375 0.421875,-0.125 0.546875,-0.125 0.140625,0 0.5,0.015625 0.65625,0.25 z m 0,0"
               id="id-532c6d3c-b855-46fb-a766-f4c5be69d61a" />
          </symbol>
        </g>
      </defs>
      <g
         id="id-3f544012-e424-4342-bd99-f9ff4184718d"
         transform="translate(-149.009,-130.359)">
        <g
           style="fill:#000000;fill-opacity:1"
           id="id-2dedf48b-e3fa-46b9-aad5-f70729213a29">
          <g
             transform="translate(148.712,134.765)"
             id="g5270">
            <path
               style="stroke:none;stroke-width:0"
               d="m 4.671875,-3.703125 c 0,-0.546875 -0.265625,-0.703125 -0.4375,-0.703125 -0.25,0 -0.5,0.265625 -0.5,0.484375 0,0.125 0.046875,0.1875 0.15625,0.296875 0.21875,0.203125 0.34375,0.453125 0.34375,0.8125 0,0.421875 -0.609375,2.703125 -1.765625,2.703125 -0.515625,0 -0.75,-0.34375 -0.75,-0.875 0,-0.546875 0.28125,-1.28125 0.578125,-2.109375 0.078125,-0.171875 0.125,-0.3125 0.125,-0.5 0,-0.4375 -0.3125,-0.8125 -0.8125,-0.8125 -0.9375,0 -1.3125,1.453125 -1.3125,1.53125 0,0.109375 0.09375,0.109375 0.109375,0.109375 0.109375,0 0.109375,-0.03125 0.15625,-0.1875 0.296875,-1 0.71875,-1.234375 1.015625,-1.234375 0.078125,0 0.25,0 0.25,0.3125 0,0.25 -0.109375,0.53125 -0.171875,0.703125 -0.4375,1.15625 -0.5625,1.609375 -0.5625,2.046875 0,1.078125 0.875,1.234375 1.328125,1.234375 1.671875,0 2.25,-3.296875 2.25,-3.8125 z m 0,0"
               id="id-f8c9eb64-a71a-455a-ad1d-b212b1238306" />
          </g>
        </g>
        <g
           style="fill:#000000;fill-opacity:1"
           id="id-604169d6-53fe-4edf-afc2-3e8a382c14b4">
          <g
             transform="translate(153.541,136.259)"
             id="g6941">
            <path
               style="stroke:none;stroke-width:0"
               d="m 3,-2.625 c -0.171875,0.046875 -0.296875,0.1875 -0.296875,0.328125 0,0.171875 0.140625,0.234375 0.234375,0.234375 0.078125,0 0.34375,-0.046875 0.34375,-0.40625 0,-0.453125 -0.5,-0.609375 -0.9375,-0.609375 -1.078125,0 -1.28125,0.8125 -1.28125,1.015625 0,0.265625 0.15625,0.4375 0.25,0.515625 0.171875,0.140625 0.296875,0.171875 0.78125,0.25 0.15625,0.03125 0.59375,0.109375 0.59375,0.453125 0,0.125 -0.078125,0.390625 -0.359375,0.5625 C 2.046875,-0.125 1.703125,-0.125 1.625,-0.125 1.34375,-0.125 0.953125,-0.1875 0.78125,-0.421875 1.015625,-0.453125 1.171875,-0.625 1.171875,-0.8125 c 0,-0.171875 -0.125,-0.265625 -0.265625,-0.265625 -0.203125,0 -0.40625,0.171875 -0.40625,0.46875 0,0.421875 0.4375,0.671875 1.109375,0.671875 1.296875,0 1.53125,-0.875 1.53125,-1.140625 0,-0.640625 -0.703125,-0.765625 -0.96875,-0.8125 -0.0625,-0.015625 -0.234375,-0.046875 -0.28125,-0.0625 -0.25,-0.046875 -0.375,-0.1875 -0.375,-0.34375 0,-0.15625 0.125,-0.34375 0.28125,-0.453125 0.1875,-0.109375 0.421875,-0.125 0.546875,-0.125 0.140625,0 0.5,0.015625 0.65625,0.25 z m 0,0"
               id="id-1011bff6-f168-4136-a7fa-71aa131a4c1e" />
          </g>
        </g>
      </g>
    </g>
  </g>
</svg>
